<svg width="122pt" height="91pt" viewBox="0 0 122 91" xmlns="http://www.w3.org/2000/svg">
  <g fill="#ffcf01">
    <path
      d="M53.7 0h3.41c-1.22 5.96-2.33 11.93-3.49 17.9-4.91.19-9.77 1.87-13.35 5.33C32 30.52 28.66 41.54 26.49 51.99c6.96.04 13.91-.02 20.87.02-2.52 13-5.01 26-7.58 38.99H.51c1.98-10.04 3.9-20.09 5.86-30.13 2.42-14.09 5.9-28.48 14.25-40.36C28.11 9.47 40.16 1.08 53.7 0zM117.98 0h3.76c-1.22 5.97-2.29 11.96-3.52 17.93-5.12.1-10.11 2.05-13.75 5.68-7.97 7.32-11.2 18.11-13.34 28.38 6.95.04 13.91-.01 20.87.02-2.52 13-5.01 26-7.58 38.99H65.16c2.54-12.96 5.01-25.92 7.55-38.88 2.69-13.49 7.73-26.95 17.06-37.29C97 6.72 107.09 1.07 117.98 0z" />
  </g>
</svg>
